<svg version="1.1" xmlns="http://www.w3.org/2000/svg" xmlns:xlink="http://www.w3.org/1999/xlink" width="15" height="11" viewBox="0 0 15 11">
<g id="check_icon">
<path id="check_icon" d="M14.201,2.688 C14.201,2.465 14.112,2.242 13.951,2.081 C13.951,2.081 12.737,0.867 12.737,0.867 C12.577,0.707 12.354,0.618 12.130,0.618 C11.907,0.618 11.684,0.707 11.523,0.867 C11.523,0.867 5.668,6.732 5.668,6.732 C5.668,6.732 3.043,4.099 3.043,4.099 C2.883,3.938 2.660,3.849 2.436,3.849 C2.213,3.849 1.990,3.938 1.829,4.099 C1.829,4.099 0.615,5.313 0.615,5.313 C0.455,5.474 0.365,5.697 0.365,5.920 C0.365,6.143 0.455,6.366 0.615,6.527 C0.615,6.527 3.847,9.758 3.847,9.758 C3.847,9.758 5.061,10.972 5.061,10.972 C5.221,11.133 5.445,11.222 5.668,11.222 C5.891,11.222 6.114,11.133 6.275,10.972 C6.275,10.972 7.489,9.758 7.489,9.758 C7.489,9.758 13.951,3.295 13.951,3.295 C14.112,3.135 14.201,2.912 14.201,2.688 z" fill="#00B000" />
</g>
</svg>
