<svg version="1.1" xmlns="http://www.w3.org/2000/svg" xmlns:xlink="http://www.w3.org/1999/xlink" width="125" height="25" viewBox="0 0 125 25">
<g id="logo">
<path id="Expert" d="M72.472,17.021 C72.611,17.250 72.845,17.365 73.176,17.365 C73.453,17.365 73.688,17.335 73.880,17.277 C74.072,17.218 74.285,17.141 74.520,17.045 C74.520,17.045 74.808,18.021 74.808,18.021 C74.520,18.159 74.205,18.271 73.864,18.357 C73.523,18.442 73.155,18.485 72.760,18.485 C72.109,18.485 71.651,18.301 71.384,17.933 C71.117,17.565 70.984,16.949 70.984,16.085 C70.984,16.085 70.984,11.413 70.984,11.413 L69.736,11.413 L69.736,10.293 L70.984,10.293 L70.984,8.709 L72.264,8.341 L72.264,10.293 L74.440,10.293 L74.440,11.413 L72.264,11.413 C72.264,11.413 72.264,15.845 72.264,15.845 C72.264,16.399 72.333,16.791 72.472,17.021 zM67.736,11.365 C67.277,11.365 66.915,11.490 66.648,11.741 C66.381,11.991 66.216,12.309 66.152,12.693 C66.152,12.693 66.152,18.293 66.152,18.293 L64.872,18.293 L64.872,10.293 L65.768,10.293 L66.008,11.269 C66.008,11.269 66.072,11.269 66.072,11.269 C66.275,10.906 66.517,10.626 66.800,10.429 C67.083,10.231 67.443,10.133 67.880,10.133 C68.189,10.133 68.536,10.186 68.920,10.293 C68.920,10.293 68.648,11.525 68.648,11.525 C68.328,11.418 68.024,11.365 67.736,11.365 zM57.624,14.421 C57.624,14.890 57.672,15.306 57.768,15.669 C57.864,16.031 58.013,16.338 58.216,16.589 C58.419,16.839 58.683,17.031 59.008,17.165 C59.333,17.298 59.731,17.365 60.200,17.365 C60.563,17.365 60.925,17.301 61.288,17.173 C61.651,17.045 61.923,16.895 62.104,16.725 C62.104,16.725 62.584,17.653 62.584,17.653 C62.264,17.909 61.861,18.111 61.376,18.261 C60.891,18.410 60.376,18.485 59.832,18.485 C59.224,18.485 58.696,18.386 58.248,18.189 C57.800,17.991 57.432,17.709 57.144,17.341 C56.856,16.973 56.643,16.533 56.504,16.021 C56.365,15.509 56.296,14.933 56.296,14.293 C56.296,12.927 56.600,11.887 57.208,11.173 C57.816,10.458 58.685,10.101 59.816,10.101 C60.179,10.101 60.541,10.141 60.904,10.221 C61.267,10.301 61.592,10.453 61.880,10.677 C62.168,10.901 62.403,11.218 62.584,11.629 C62.765,12.039 62.856,12.581 62.856,13.253 C62.856,13.605 62.824,13.994 62.760,14.421 C62.760,14.421 57.624,14.421 57.624,14.421 zM61.144,11.709 C60.835,11.383 60.397,11.221 59.832,11.221 C59.203,11.221 58.699,11.386 58.320,11.717 C57.941,12.047 57.715,12.613 57.640,13.413 C57.640,13.413 61.608,13.413 61.608,13.413 C61.608,12.602 61.453,12.034 61.144,11.709 zM53.720,17.317 C53.400,17.690 53.014,17.978 52.560,18.181 C52.107,18.383 51.603,18.485 51.048,18.485 C50.654,18.485 50.342,18.461 50.112,18.413 C49.883,18.365 49.635,18.282 49.368,18.165 C49.368,18.165 49.368,21.493 49.368,21.493 L48.088,21.493 L48.088,10.293 L48.968,10.293 L49.208,11.253 C49.208,11.253 49.272,11.253 49.272,11.253 C49.518,10.879 49.835,10.594 50.224,10.397 C50.614,10.199 51.059,10.101 51.560,10.101 C52.627,10.101 53.422,10.415 53.944,11.045 C54.467,11.674 54.728,12.703 54.728,14.133 C54.728,14.805 54.640,15.410 54.464,15.949 C54.288,16.487 54.040,16.943 53.720,17.317 zM53.288,12.925 C53.214,12.567 53.094,12.263 52.928,12.013 C52.763,11.762 52.550,11.567 52.288,11.429 C52.027,11.290 51.704,11.221 51.320,11.221 C50.776,11.221 50.347,11.362 50.032,11.645 C49.718,11.927 49.496,12.357 49.368,12.933 C49.368,12.933 49.368,16.901 49.368,16.901 C49.560,17.050 49.779,17.165 50.024,17.245 C50.270,17.325 50.595,17.365 51.000,17.365 C51.736,17.365 52.320,17.090 52.752,16.541 C53.184,15.991 53.400,15.183 53.400,14.117 C53.400,13.679 53.363,13.282 53.288,12.925 zM44.888,18.293 L43.192,15.861 L42.712,14.901 L42.216,15.861 L40.488,18.293 L39.064,18.293 L41.944,14.197 L39.256,10.293 L40.824,10.293 L42.344,12.501 L42.792,13.413 L43.256,12.501 L44.808,10.293 L46.248,10.293 L43.544,14.133 L46.408,18.293 L44.888,18.293 zM31.401,7.093 L37.497,7.093 L37.497,8.277 L32.729,8.277 L32.729,11.941 L37.097,11.941 L37.097,13.125 L32.729,13.125 L32.729,17.109 L37.577,17.109 L37.577,18.293 L31.401,18.293 L31.401,7.093 z" fill="#333333" />
<path id="Writing" d="M123.736,20.861 C123.107,21.410 122.227,21.685 121.096,21.685 C120.328,21.685 119.723,21.631 119.280,21.525 C118.837,21.418 118.504,21.306 118.280,21.189 C118.280,21.189 118.712,19.541 118.712,19.541 C118.957,19.637 119.243,19.733 119.568,19.829 C119.893,19.925 120.296,19.973 120.776,19.973 C121.501,19.973 121.995,19.815 122.256,19.501 C122.517,19.186 122.648,18.746 122.648,18.181 C122.648,18.181 122.648,17.669 122.648,17.669 C122.648,17.669 122.584,17.669 122.584,17.669 C122.211,18.170 121.549,18.421 120.600,18.421 C119.565,18.421 118.795,18.101 118.288,17.461 C117.781,16.821 117.528,15.818 117.528,14.453 C117.528,13.023 117.869,11.941 118.552,11.205 C119.235,10.469 120.227,10.101 121.528,10.101 C122.211,10.101 122.821,10.149 123.360,10.245 C123.899,10.341 124.339,10.453 124.680,10.581 C124.680,10.581 124.680,18.293 124.680,18.293 C124.680,19.455 124.365,20.311 123.736,20.861 zM122.600,12.069 C122.269,11.930 121.859,11.861 121.368,11.861 C120.835,11.861 120.419,12.061 120.120,12.461 C119.821,12.861 119.672,13.498 119.672,14.373 C119.672,15.151 119.800,15.743 120.056,16.149 C120.312,16.554 120.680,16.757 121.160,16.757 C121.565,16.757 121.877,16.666 122.096,16.485 C122.315,16.303 122.483,16.031 122.600,15.669 C122.600,15.669 122.600,12.069 122.600,12.069 zM114.088,13.749 C114.088,13.098 113.995,12.629 113.808,12.341 C113.622,12.053 113.304,11.909 112.856,11.909 C112.462,11.909 112.128,12.023 111.856,12.253 C111.584,12.482 111.390,12.767 111.272,13.109 C111.272,13.109 111.272,18.293 111.272,18.293 L109.192,18.293 L109.192,10.293 L110.840,10.293 L111.080,11.349 C111.080,11.349 111.144,11.349 111.144,11.349 C111.390,11.007 111.715,10.709 112.120,10.453 C112.526,10.197 113.048,10.069 113.688,10.069 C114.083,10.069 114.435,10.122 114.744,10.229 C115.054,10.335 115.315,10.511 115.528,10.757 C115.742,11.002 115.902,11.335 116.008,11.757 C116.115,12.178 116.168,12.698 116.168,13.317 C116.168,13.317 116.168,18.293 116.168,18.293 L114.088,18.293 C114.088,18.293 114.088,13.749 114.088,13.749 zM106.056,9.125 C105.651,9.125 105.334,9.021 105.104,8.813 C104.875,8.605 104.760,8.346 104.760,8.037 C104.760,7.727 104.875,7.463 105.104,7.245 C105.334,7.026 105.651,6.917 106.056,6.917 C106.462,6.917 106.790,7.026 107.040,7.245 C107.291,7.463 107.416,7.727 107.416,8.037 C107.416,8.346 107.291,8.605 107.040,8.813 C106.790,9.021 106.462,9.125 106.056,9.125 zM101.824,16.317 C101.936,16.557 102.147,16.677 102.456,16.677 C102.670,16.677 102.854,16.655 103.008,16.613 C103.163,16.570 103.336,16.506 103.528,16.421 C103.528,16.421 103.896,18.021 103.896,18.021 C103.608,18.159 103.272,18.277 102.888,18.373 C102.504,18.469 102.115,18.517 101.720,18.517 C100.984,18.517 100.443,18.327 100.096,17.949 C99.750,17.570 99.576,16.949 99.576,16.085 C99.576,16.085 99.576,12.053 99.576,12.053 L98.472,12.053 L98.472,10.293 L99.576,10.293 L99.576,8.789 L101.656,8.197 L101.656,10.293 L103.608,10.293 L103.608,12.053 L101.656,12.053 C101.656,12.053 101.656,15.125 101.656,15.125 C101.656,15.679 101.712,16.077 101.824,16.317 zM96.168,9.125 C95.763,9.125 95.446,9.021 95.216,8.813 C94.987,8.605 94.872,8.346 94.872,8.037 C94.872,7.727 94.987,7.463 95.216,7.245 C95.446,7.026 95.763,6.917 96.168,6.917 C96.574,6.917 96.902,7.026 97.152,7.245 C97.403,7.463 97.528,7.727 97.528,8.037 C97.528,8.346 97.403,8.605 97.152,8.813 C96.902,9.021 96.574,9.125 96.168,9.125 zM92.904,12.069 C92.531,12.069 92.219,12.167 91.968,12.365 C91.718,12.562 91.550,12.815 91.464,13.125 C91.464,13.125 91.464,18.293 91.464,18.293 L89.384,18.293 L89.384,10.293 L91.000,10.293 L91.240,11.349 C91.240,11.349 91.304,11.349 91.304,11.349 C91.486,10.954 91.731,10.650 92.040,10.437 C92.350,10.223 92.712,10.117 93.128,10.117 C93.406,10.117 93.720,10.175 94.072,10.293 C94.072,10.293 93.800,12.245 93.800,12.245 C93.470,12.127 93.171,12.069 92.904,12.069 zM84.680,18.373 L82.680,12.149 L82.408,10.437 L82.328,10.437 L82.056,12.165 L80.072,18.373 L78.520,18.373 L75.448,7.093 L77.832,7.093 L79.320,13.349 L79.528,15.333 L79.592,15.333 L79.816,13.317 L81.768,7.093 L83.208,7.093 L85.128,13.349 L85.352,15.333 L85.416,15.333 L85.661,13.317 L87.048,7.093 L89.240,7.093 L86.152,18.373 L84.680,18.373 zM97.256,18.293 L95.176,18.293 L95.176,10.293 L97.256,10.293 L97.256,18.293 zM107.144,18.293 L105.064,18.293 L105.064,10.293 L107.144,10.293 L107.144,18.293 z" fill="#333333" />
<path id="Прямоугольник-1" d="M0.000,-0.000 L26.000,-0.000 L26.000,25.000 L0.000,25.000 L0.000,-0.000 z" fill="#F8CC00" />
<path id="EW" d="M20.712,18.373 L19.240,18.373 L17.240,12.149 L16.968,10.437 L16.888,10.437 L16.616,12.165 L14.632,18.373 L13.080,18.373 L10.008,7.093 L12.392,7.093 L13.880,13.349 L14.088,15.333 L14.152,15.333 L14.376,13.317 L16.328,7.093 L17.768,7.093 L19.688,13.349 L19.912,15.333 L19.976,15.333 L20.221,13.317 L21.608,7.093 L23.800,7.093 L20.712,18.373 zM2.616,7.093 L9.256,7.093 L9.256,9.045 L4.808,9.045 L4.808,11.653 L8.856,11.653 L8.856,13.605 L4.808,13.605 L4.808,16.341 L9.336,16.341 L9.336,18.293 L2.616,18.293 L2.616,7.093 z" fill="#FFFFFF" />
</g>
</svg>
