<svg version="1.1" xmlns="http://www.w3.org/2000/svg" xmlns:xlink="http://www.w3.org/1999/xlink" width="58" height="78" viewBox="0 0 58 78">
<g id="sample_icon">
<path id="sample_icon" d="M54.013,77.400 C54.013,77.400 3.986,77.400 3.986,77.400 C1.898,77.400 0.200,75.702 0.200,73.614 C0.200,73.614 0.200,4.386 0.200,4.386 C0.200,2.298 1.898,0.600 3.986,0.600 C3.986,0.600 42.234,0.600 42.234,0.600 C42.729,0.600 43.179,0.801 43.504,1.125 C43.504,1.126 43.505,1.126 43.505,1.127 C43.505,1.127 57.273,14.891 57.273,14.891 C57.612,15.231 57.791,15.683 57.796,16.144 C57.796,16.151 57.800,16.156 57.800,16.163 C57.800,16.163 57.800,73.614 57.800,73.614 C57.800,75.702 56.101,77.400 54.013,77.400 zM44.032,6.740 C44.032,6.740 44.032,14.175 44.032,14.175 C44.032,14.280 44.117,14.365 44.221,14.365 C44.221,14.365 51.659,14.365 51.659,14.365 L44.032,6.740 zM54.203,17.961 C54.203,17.961 44.222,17.961 44.222,17.961 C42.134,17.961 40.435,16.263 40.435,14.175 C40.435,14.175 40.435,4.196 40.435,4.196 C40.435,4.196 3.986,4.196 3.986,4.196 C3.882,4.196 3.797,4.281 3.797,4.386 C3.797,4.386 3.797,73.615 3.797,73.615 C3.797,73.719 3.882,73.804 3.986,73.804 C3.986,73.804 54.013,73.804 54.013,73.804 C54.118,73.804 54.203,73.719 54.203,73.615 C54.203,73.615 54.203,73.615 54.203,73.615 L54.203,17.961 zM44.916,50.500 C44.916,50.500 13.083,50.500 13.083,50.500 C12.090,50.500 11.285,49.695 11.285,48.702 C11.285,47.709 12.090,46.904 13.083,46.904 C13.083,46.904 44.916,46.904 44.916,46.904 C45.909,46.904 46.715,47.709 46.715,48.702 C46.715,49.695 45.909,50.500 44.916,50.500 zM44.916,39.649 C44.916,39.649 13.083,39.649 13.083,39.649 C12.090,39.649 11.285,38.844 11.285,37.851 C11.285,36.858 12.090,36.053 13.083,36.053 C13.083,36.053 44.916,36.053 44.916,36.053 C45.909,36.053 46.715,36.858 46.715,37.851 C46.715,38.844 45.909,39.649 44.916,39.649 zM44.916,28.799 C44.916,28.799 13.083,28.799 13.083,28.799 C12.090,28.799 11.285,27.993 11.285,27.000 C11.285,26.007 12.090,25.202 13.083,25.202 C13.083,25.202 44.916,25.202 44.916,25.202 C45.909,25.202 46.715,26.007 46.715,27.000 C46.715,27.993 45.909,28.799 44.916,28.799 zM13.083,57.755 C13.083,57.755 29.000,57.755 29.000,57.755 C29.993,57.755 30.799,58.560 30.799,59.553 C30.799,60.546 29.993,61.351 29.000,61.351 C29.000,61.351 13.083,61.351 13.083,61.351 C12.090,61.351 11.285,60.546 11.285,59.553 C11.285,58.560 12.090,57.755 13.083,57.755 z" fill="#F8CC00" />
</g>
</svg>
