<svg version="1.1" xmlns="http://www.w3.org/2000/svg" xmlns:xlink="http://www.w3.org/1999/xlink" width="14" height="13" viewBox="0 0 14 13">
<g id="star1">
<path id="star1" d="M13.166,5.109 C13.166,4.875 12.916,4.781 12.728,4.750 C12.728,4.750 8.806,4.180 8.806,4.180 C8.806,4.180 7.049,0.625 7.049,0.625 C6.978,0.477 6.845,0.305 6.666,0.305 C6.486,0.305 6.353,0.477 6.283,0.625 C6.283,0.625 4.525,4.180 4.525,4.180 C4.525,4.180 0.603,4.750 0.603,4.750 C0.408,4.781 0.166,4.875 0.166,5.109 C0.166,5.250 0.267,5.383 0.361,5.484 C0.361,5.484 3.205,8.250 3.205,8.250 C3.205,8.250 2.533,12.156 2.533,12.156 C2.525,12.211 2.517,12.258 2.517,12.313 C2.517,12.516 2.619,12.703 2.845,12.703 C2.955,12.703 3.056,12.664 3.158,12.609 C3.158,12.609 6.666,10.766 6.666,10.766 C6.666,10.766 10.174,12.609 10.174,12.609 C10.267,12.664 10.377,12.703 10.486,12.703 C10.713,12.703 10.806,12.516 10.806,12.313 C10.806,12.258 10.806,12.211 10.799,12.156 C10.799,12.156 10.127,8.250 10.127,8.250 C10.127,8.250 12.963,5.484 12.963,5.484 C13.064,5.383 13.166,5.250 13.166,5.109 z" fill="#F8CC00" />
</g>
</svg>
