<svg version="1.1" xmlns="http://www.w3.org/2000/svg" xmlns:xlink="http://www.w3.org/1999/xlink" width="44" height="47" viewBox="0 0 44 47">
<g id="Support">
<path id="Support" d="M38.009,17.869 C38.009,17.869 38.009,16.061 38.009,16.061 C38.009,11.734 36.485,7.713 33.722,4.730 C30.891,1.667 26.998,-0.012 22.750,-0.012 C22.750,-0.012 21.266,-0.012 21.266,-0.012 C17.019,-0.012 13.125,1.667 10.294,4.730 C7.531,7.713 6.007,11.734 6.007,16.061 C6.007,16.061 6.007,17.869 6.007,17.869 C2.654,18.096 -0.010,20.902 -0.010,24.330 C-0.010,24.330 -0.010,27.155 -0.010,27.155 C-0.010,30.722 2.881,33.626 6.430,33.626 C6.430,33.626 10.058,33.626 10.058,33.626 C10.707,33.626 11.238,33.093 11.238,32.441 C11.238,32.441 11.238,19.035 11.238,19.035 C11.238,18.383 10.707,17.849 10.058,17.849 C10.058,17.849 8.367,17.849 8.367,17.849 C8.367,17.849 8.367,16.061 8.367,16.061 C8.367,8.247 13.912,2.359 21.256,2.359 C21.256,2.359 22.741,2.359 22.741,2.359 C30.095,2.359 35.630,8.247 35.630,16.061 C35.630,16.061 35.630,17.849 35.630,17.849 C35.630,17.849 33.939,17.849 33.939,17.849 C33.290,17.849 32.759,18.383 32.759,19.035 C32.759,19.035 32.759,32.431 32.759,32.431 C32.759,33.083 33.290,33.616 33.939,33.616 C33.939,33.616 35.590,33.616 35.590,33.616 C35.109,39.800 30.871,41.233 28.905,41.559 C28.364,39.889 26.801,38.684 24.962,38.684 C24.962,38.684 22.013,38.684 22.013,38.684 C19.732,38.684 17.874,40.551 17.874,42.843 C17.874,45.135 19.732,47.012 22.013,47.012 C22.013,47.012 24.972,47.012 24.972,47.012 C26.880,47.012 28.482,45.708 28.964,43.950 C29.927,43.811 31.451,43.466 32.965,42.576 C35.099,41.322 37.626,38.763 37.960,33.606 C41.332,33.399 44.006,30.583 44.006,27.145 C44.006,27.145 44.006,24.320 44.006,24.320 C44.016,20.902 41.362,18.086 38.009,17.869 zM8.898,31.245 C8.898,31.245 6.449,31.245 6.449,31.245 C4.198,31.245 2.369,29.408 2.369,27.145 C2.369,27.145 2.369,24.320 2.369,24.320 C2.369,22.058 4.198,20.220 6.449,20.220 C6.449,20.220 8.898,20.220 8.898,20.220 L8.898,31.245 zM24.972,44.641 C24.972,44.641 22.013,44.641 22.013,44.641 C21.030,44.641 20.233,43.841 20.233,42.853 C20.233,41.865 21.030,41.065 22.013,41.065 C22.013,41.065 24.972,41.065 24.972,41.065 C25.955,41.065 26.752,41.865 26.752,42.853 C26.752,43.841 25.955,44.641 24.972,44.641 zM41.657,27.145 C41.657,29.408 39.828,31.245 37.576,31.245 C37.576,31.245 35.128,31.245 35.128,31.245 L35.128,20.220 C35.128,20.220 37.576,20.220 37.576,20.220 C39.828,20.220 41.657,22.058 41.657,24.320 C41.657,24.320 41.657,27.145 41.657,27.145 z" fill="#F8A300" />
</g>
</svg>
