<svg version="1.1" xmlns="http://www.w3.org/2000/svg" xmlns:xlink="http://www.w3.org/1999/xlink" width="52" height="44" viewBox="0 0 52 44">
<g id="whyus_5">
<path id="whyus_5" d="M43.980,22.154 C40.837,26.095 37.242,30.094 34.863,32.611 C34.863,32.611 34.864,38.880 34.864,38.880 C34.864,41.372 32.839,43.399 30.349,43.399 C30.349,43.399 5.409,43.399 5.409,43.399 C2.639,43.399 0.386,41.144 0.386,38.371 C0.386,38.371 0.386,35.523 0.386,35.523 C0.386,35.057 0.763,34.680 1.228,34.680 C1.228,34.680 8.747,34.680 8.747,34.680 C8.747,34.680 8.747,5.119 8.747,5.119 C8.747,2.627 10.773,0.600 13.262,0.600 C13.262,0.600 37.693,0.600 37.693,0.600 C40.463,0.600 42.716,2.855 42.716,5.628 C42.716,5.628 42.716,8.476 42.716,8.476 C42.716,8.942 42.339,9.319 41.874,9.319 C41.874,9.319 34.863,9.319 34.863,9.319 C34.863,9.319 34.863,16.814 34.863,16.814 C35.554,16.239 36.251,15.669 36.947,15.113 C43.880,9.571 48.431,7.099 50.858,7.554 C51.199,7.618 51.467,7.886 51.531,8.227 C51.986,10.658 49.516,15.213 43.980,22.154 zM8.747,36.366 L2.070,36.366 C2.070,36.366 2.070,38.371 2.070,38.371 C2.070,40.214 3.568,41.714 5.409,41.714 C5.409,41.714 5.409,41.714 5.409,41.714 C7.250,41.714 8.747,40.214 8.747,38.372 C8.747,38.372 8.747,36.366 8.747,36.366 zM16.600,8.476 C16.600,8.476 16.600,5.628 16.600,5.628 C16.600,3.785 15.103,2.286 13.262,2.286 C11.701,2.286 10.431,3.557 10.431,5.119 C10.431,5.119 10.431,38.372 10.431,38.372 C10.431,39.654 9.949,40.824 9.157,41.714 C9.157,41.714 30.349,41.714 30.349,41.714 C31.910,41.714 33.180,40.442 33.180,38.879 C33.180,38.879 33.179,34.346 33.179,34.346 C31.617,35.876 29.397,36.744 26.750,36.855 C26.549,36.863 26.353,36.866 26.162,36.866 C25.074,36.866 24.173,36.743 23.654,36.652 C23.654,36.652 20.088,40.222 20.088,40.222 C19.924,40.386 19.708,40.469 19.493,40.469 C19.278,40.469 19.062,40.386 18.898,40.222 C18.569,39.892 18.569,39.359 18.898,39.030 C18.898,39.030 22.463,35.461 22.463,35.461 C22.417,35.204 22.363,34.854 22.321,34.434 C22.321,34.434 14.061,34.434 14.061,34.434 C13.596,34.434 13.218,34.057 13.218,33.591 C13.218,33.126 13.595,32.748 14.061,32.748 C14.061,32.748 22.246,32.748 22.246,32.748 C22.258,31.846 22.358,30.827 22.630,29.797 C22.630,29.797 14.061,29.797 14.061,29.797 C13.596,29.797 13.218,29.420 13.218,28.954 C13.218,28.489 13.595,28.111 14.061,28.111 C14.061,28.111 23.245,28.111 23.245,28.111 C23.624,27.318 24.137,26.553 24.824,25.866 C25.031,25.658 25.272,25.421 25.540,25.161 C25.540,25.161 14.061,25.161 14.061,25.161 C13.596,25.161 13.218,24.784 13.218,24.318 C13.218,23.853 13.595,23.475 14.061,23.475 C14.061,23.475 27.314,23.475 27.314,23.475 C28.928,21.970 30.980,20.118 33.179,18.236 C33.179,18.236 33.179,9.319 33.179,9.319 C33.179,9.319 17.442,9.319 17.442,9.319 C16.977,9.319 16.600,8.942 16.600,8.476 zM41.032,7.633 C41.032,7.633 41.032,5.628 41.032,5.628 C41.032,3.785 39.534,2.286 37.693,2.286 C37.693,2.286 37.693,2.285 37.693,2.285 C37.693,2.285 17.012,2.285 17.012,2.285 C17.803,3.175 18.285,4.346 18.285,5.628 C18.285,5.628 18.285,7.633 18.285,7.633 L41.032,7.633 zM37.998,16.431 C33.056,20.380 28.025,25.045 26.015,27.058 C23.977,29.097 23.832,32.118 23.972,33.950 C23.972,33.950 45.419,12.480 45.419,12.480 C45.748,12.151 46.281,12.151 46.610,12.480 C46.939,12.809 46.939,13.343 46.610,13.672 C46.610,13.672 25.163,35.142 25.163,35.142 C25.621,35.177 26.153,35.194 26.724,35.168 C28.987,35.066 30.778,34.369 32.048,33.098 C34.058,31.085 38.718,26.048 42.664,21.102 C44.816,18.404 49.560,12.163 49.888,9.199 C46.927,9.527 40.693,14.276 37.998,16.431 zM30.392,15.046 C30.392,15.511 30.015,15.889 29.550,15.889 C29.550,15.889 14.060,15.889 14.060,15.889 C13.595,15.889 13.218,15.511 13.218,15.046 C13.218,14.580 13.595,14.203 14.060,14.203 C14.060,14.203 29.550,14.203 29.550,14.203 C30.015,14.203 30.392,14.580 30.392,15.046 zM14.060,18.839 C14.060,18.839 29.550,18.839 29.550,18.839 C30.015,18.839 30.392,19.217 30.392,19.682 C30.392,20.148 30.015,20.525 29.550,20.525 C29.550,20.525 14.060,20.525 14.060,20.525 C13.595,20.525 13.218,20.148 13.218,19.682 C13.218,19.217 13.595,18.839 14.060,18.839 z" fill="#F8A300" />
</g>
</svg>
