<svg version="1.1" xmlns="http://www.w3.org/2000/svg" xmlns:xlink="http://www.w3.org/1999/xlink" width="42" height="42" viewBox="0 0 42 42">
<g id="whyus_3">
<path id="whyus_3" d="M18.173,6.734 L19.963,6.734 L19.963,21.556 L29.234,26.020 L28.437,27.623 L18.173,22.627 L18.173,6.734 zM39.763,13.700 L30.930,11.378 L31.375,9.682 C31.375,9.682 37.510,11.309 37.510,11.309 C34.186,5.638 28.026,1.833 20.983,1.833 C10.410,1.833 1.842,10.418 1.842,21.000 C1.842,31.581 10.419,40.157 20.991,40.157 C27.991,40.157 34.109,36.396 37.450,30.784 C37.450,30.784 39.104,31.581 39.104,31.581 C35.462,37.809 28.711,41.991 20.983,41.991 C9.399,41.991 0.009,32.592 0.009,21.000 C0.009,9.407 9.399,0.009 20.983,0.009 C28.531,0.009 35.145,3.993 38.838,9.982 C38.838,9.982 40.295,4.421 40.295,4.421 L41.991,4.867 L39.763,13.700 z" fill="#F8A300" />
</g>
</svg>
