<svg version="1.1" xmlns="http://www.w3.org/2000/svg" xmlns:xlink="http://www.w3.org/1999/xlink" width="53" height="37" viewBox="0 0 53 37">
<g id="whyus_1">
<path id="whyus_1" d="M48.839,26.259 C47.420,27.302 45.740,27.850 44.011,27.850 C43.734,27.850 43.456,27.835 43.178,27.807 C42.841,28.589 42.452,29.355 42.012,30.098 C42.557,29.925 43.124,29.805 43.706,29.746 C45.881,29.530 48.010,30.173 49.701,31.557 C49.870,31.697 49.978,31.897 49.999,32.115 C50.021,32.333 49.955,32.551 49.816,32.720 C48.201,34.693 45.849,35.715 43.479,35.715 C41.840,35.715 40.192,35.224 38.773,34.222 C37.843,35.134 36.827,35.957 35.749,36.669 C35.609,36.762 35.451,36.806 35.295,36.806 C35.027,36.806 34.763,36.675 34.604,36.435 C34.353,36.054 34.458,35.541 34.839,35.290 C35.879,34.603 36.858,33.803 37.748,32.913 C39.738,30.923 41.180,28.588 42.074,26.099 C40.270,25.406 38.783,24.112 37.845,22.398 C36.795,20.481 36.555,18.270 37.169,16.173 C37.297,15.735 37.755,15.483 38.194,15.611 C40.433,16.266 42.178,17.800 43.169,19.727 C43.162,17.967 42.907,16.207 42.403,14.506 C41.730,14.678 41.052,14.761 40.383,14.761 C37.013,14.761 33.850,12.663 32.663,9.310 C32.511,8.880 32.736,8.408 33.166,8.256 C35.216,7.530 37.424,7.642 39.388,8.570 C38.890,7.917 38.344,7.289 37.748,6.693 C37.425,6.370 37.425,5.847 37.748,5.524 C38.071,5.201 38.594,5.201 38.917,5.524 C39.341,5.948 39.741,6.388 40.120,6.840 C40.133,6.486 40.168,6.132 40.227,5.777 C40.590,3.622 41.771,1.737 43.552,0.470 C43.730,0.343 43.952,0.292 44.168,0.329 C44.384,0.365 44.577,0.486 44.704,0.664 C47.225,4.207 46.514,9.088 43.169,11.779 C43.440,12.408 43.678,13.048 43.883,13.697 C44.045,13.335 44.234,12.981 44.450,12.640 C45.620,10.794 47.439,9.515 49.572,9.038 C50.017,8.938 50.459,9.218 50.559,9.663 C51.036,11.796 50.655,13.986 49.485,15.832 C48.398,17.545 46.752,18.769 44.816,19.318 C44.837,20.196 44.800,21.075 44.707,21.949 C46.466,20.381 48.884,19.578 51.389,19.961 C51.840,20.029 52.150,20.451 52.081,20.902 C51.751,23.062 50.600,24.965 48.839,26.259 zM40.073,33.103 C42.561,34.630 45.792,34.309 47.930,32.321 C46.720,31.576 45.308,31.248 43.870,31.391 C42.432,31.534 41.112,32.134 40.073,33.103 zM38.563,17.504 C38.350,18.908 38.601,20.337 39.295,21.604 C39.989,22.871 41.057,23.852 42.355,24.429 C42.789,21.542 41.229,18.694 38.563,17.504 zM38.708,10.075 C37.404,9.453 35.964,9.282 34.573,9.573 C35.910,12.169 38.840,13.567 41.699,12.973 C41.051,11.709 40.012,10.697 38.708,10.075 zM43.822,2.379 C42.785,3.350 42.097,4.626 41.857,6.051 C41.617,7.476 41.849,8.908 42.510,10.165 C44.639,8.167 45.178,4.964 43.822,2.379 zM44.854,17.570 C46.186,17.077 47.315,16.168 48.089,14.947 C48.863,13.727 49.204,12.317 49.082,10.902 C46.345,11.919 44.606,14.661 44.854,17.570 zM43.893,26.196 C46.811,26.240 49.428,24.319 50.254,21.520 C47.335,21.472 44.720,23.396 43.893,26.196 zM33.938,19.550 C34.035,19.849 33.954,20.178 33.729,20.397 C33.729,20.397 30.714,23.336 30.714,23.336 C30.714,23.336 31.426,27.486 31.426,27.486 C31.479,27.796 31.351,28.109 31.097,28.294 C30.953,28.399 30.783,28.452 30.611,28.452 C30.480,28.452 30.348,28.421 30.227,28.357 C30.227,28.357 26.500,26.398 26.500,26.398 C26.500,26.398 22.773,28.357 22.773,28.357 C22.495,28.503 22.157,28.479 21.903,28.294 C21.649,28.109 21.521,27.796 21.574,27.486 C21.574,27.486 22.286,23.336 22.286,23.336 C22.286,23.336 19.271,20.397 19.271,20.397 C19.046,20.178 18.965,19.849 19.062,19.550 C19.159,19.251 19.418,19.033 19.729,18.988 C19.729,18.988 23.896,18.382 23.896,18.382 C23.896,18.382 25.759,14.607 25.759,14.607 C25.898,14.325 26.186,14.146 26.500,14.146 C26.815,14.146 27.102,14.325 27.241,14.607 C27.241,14.607 29.105,18.382 29.105,18.382 C29.105,18.382 33.271,18.988 33.271,18.988 C33.582,19.033 33.841,19.251 33.938,19.550 zM28.437,19.956 C28.168,19.916 27.936,19.748 27.815,19.503 C27.815,19.503 26.500,16.840 26.500,16.840 C26.500,16.840 25.186,19.503 25.186,19.503 C25.065,19.748 24.833,19.916 24.564,19.956 C24.564,19.956 21.624,20.383 21.624,20.383 C21.624,20.383 23.751,22.456 23.751,22.456 C23.946,22.646 24.035,22.919 23.989,23.187 C23.989,23.187 23.486,26.115 23.486,26.115 C23.486,26.115 26.116,24.733 26.116,24.733 C26.356,24.606 26.644,24.606 26.885,24.733 C26.885,24.733 29.514,26.115 29.514,26.115 C29.514,26.115 29.012,23.187 29.012,23.187 C28.966,22.919 29.054,22.646 29.249,22.456 C29.249,22.456 31.377,20.383 31.377,20.383 C31.377,20.383 28.437,19.956 28.437,19.956 zM12.617,14.762 C11.947,14.762 11.269,14.678 10.597,14.506 C10.094,16.204 9.839,17.961 9.831,19.720 C9.863,19.658 9.893,19.596 9.926,19.535 C10.976,17.618 12.709,16.224 14.807,15.611 C15.245,15.484 15.703,15.735 15.832,16.173 C17.033,20.280 14.850,24.586 10.926,26.099 C11.820,28.588 13.261,30.922 15.252,32.913 C16.142,33.803 17.121,34.603 18.161,35.290 C18.542,35.541 18.647,36.054 18.395,36.435 C18.237,36.675 17.973,36.806 17.705,36.806 C17.549,36.806 17.391,36.762 17.251,36.669 C16.173,35.958 15.158,35.134 14.227,34.222 C12.845,35.200 11.216,35.719 9.529,35.719 C9.255,35.719 8.980,35.706 8.703,35.678 C6.528,35.462 4.568,34.411 3.184,32.720 C2.895,32.367 2.947,31.847 3.300,31.557 C5.527,29.734 8.436,29.286 10.992,30.105 C10.550,29.360 10.160,28.592 9.822,27.806 C9.544,27.835 9.266,27.850 8.989,27.850 C7.259,27.850 5.581,27.303 4.161,26.259 C2.400,24.965 1.249,23.062 0.919,20.902 C0.850,20.451 1.160,20.029 1.611,19.961 C3.772,19.631 5.931,20.162 7.692,21.456 C7.901,21.610 8.101,21.773 8.292,21.943 C8.200,21.071 8.163,20.194 8.184,19.318 C4.047,18.143 1.490,13.912 2.441,9.663 C2.489,9.450 2.620,9.264 2.805,9.146 C2.990,9.029 3.215,8.990 3.428,9.038 C5.561,9.515 7.380,10.795 8.550,12.640 C8.766,12.981 8.956,13.335 9.118,13.697 C9.322,13.048 9.560,12.408 9.831,11.779 C8.268,10.523 7.231,8.762 6.894,6.767 C6.531,4.612 7.029,2.445 8.296,0.665 C8.561,0.293 9.077,0.206 9.449,0.470 C11.600,2.001 12.786,4.390 12.876,6.844 C13.256,6.391 13.657,5.950 14.083,5.524 C14.406,5.201 14.929,5.201 15.252,5.524 C15.575,5.847 15.575,6.370 15.252,6.693 C14.656,7.289 14.109,7.917 13.611,8.570 C15.576,7.642 17.784,7.530 19.834,8.256 C20.264,8.408 20.489,8.880 20.337,9.310 C19.150,12.663 15.986,14.762 12.617,14.762 zM5.070,32.321 C6.109,33.290 7.429,33.890 8.867,34.034 C10.305,34.176 11.717,33.849 12.927,33.104 C10.789,31.115 7.558,30.794 5.070,32.321 zM10.644,24.429 C13.310,23.239 14.870,20.390 14.436,17.503 C13.138,18.081 12.070,19.061 11.376,20.328 C10.682,21.596 10.432,23.024 10.644,24.429 zM7.154,13.525 C6.380,12.304 5.251,11.395 3.919,10.902 C3.671,13.811 5.410,16.553 8.147,17.570 C8.270,16.155 7.928,14.745 7.154,13.525 zM2.850,21.519 C2.815,21.519 2.780,21.519 2.745,21.520 C3.145,22.883 3.975,24.072 5.140,24.927 C6.304,25.783 7.686,26.220 9.107,26.196 C8.291,23.430 5.727,21.519 2.850,21.519 zM9.177,2.379 C8.516,3.636 8.284,5.068 8.524,6.492 C8.764,7.917 9.452,9.194 10.489,10.165 C11.845,7.580 11.306,4.377 9.177,2.379 zM14.292,10.075 C12.988,10.697 11.949,11.709 11.300,12.973 C14.159,13.567 17.090,12.169 18.427,9.573 C17.036,9.282 15.596,9.453 14.292,10.075 z" fill="#F8A300" />
</g>
</svg>
